<svg width="149" height="40" viewBox="0 0 149 40" fill="none" xmlns="http://www.w3.org/2000/svg">
<path d="M10.6607 9.36676C11.6126 8.32959 13.22 7.40994 14.4671 7.18894C14.7082 7.14625 15.4672 7.04725 16.1539 7.05996C17.2572 7.08039 17.7352 7.25105 18.1514 7.39217C19.0331 7.69116 19.5347 8.0409 20.0465 8.59644C21.3055 9.96316 21.4843 11.9329 20.5213 13.8288C20.1936 14.4741 19.8136 14.9701 19.5013 15.1601C18.772 15.6038 17.8611 15.0702 17.8604 14.1986C17.8601 13.9403 17.9455 13.7326 18.2293 13.3015C19.2165 11.8016 19.1115 10.4786 17.95 9.78352C17.3441 9.42099 16.9079 9.25535 15.7563 9.30127C14.7159 9.34276 13.8579 9.5462 12.9681 10.2149C11.6972 11.1698 11.2685 12.3323 11.7568 13.2745C11.9797 13.7047 12.7822 14.4808 13.4038 14.8675C14.2899 15.4186 15.1895 15.8098 17.6104 16.6967C20.1046 17.6105 21.8544 18.3351 22.7706 18.8336C24.5052 19.7776 25.6194 20.7731 26.1581 21.8609C26.3551 22.2587 26.4742 22.5119 26.4705 23.4586C26.4661 24.5808 26.3391 24.9899 25.6902 25.9718C24.8779 27.2006 23.5692 28.3805 21.5221 29.7291C17.5896 32.3198 14.3012 33.3415 11.6352 32.801C9.70194 32.409 8.08588 30.9337 7.46241 28.9916C6.30187 25.3761 7.71585 21.1486 10.7856 19.0562C11.2731 18.7238 11.5532 18.6448 11.8029 18.6448C12.0526 18.6448 12.3148 18.7074 12.5814 18.9976C12.8188 19.2561 12.8849 19.5999 12.8663 19.687C12.8849 20.0151 12.7051 20.474 12.1623 20.8337C10.9634 21.6279 10.1247 22.7766 9.63627 24.2935C8.85042 26.7337 9.46515 29.2862 11.0632 30.2191C12.1639 30.8614 13.8149 30.8515 15.7916 30.1906C17.961 29.4653 21.2064 27.4749 22.8774 25.8448C25.058 23.7179 24.6996 22.3622 21.5265 20.7338C20.329 20.1192 19.6343 19.8329 16.8613 18.8108C13.401 17.5354 12.5954 17.1427 11.2974 16.0991C8.92541 14.1921 8.67373 11.5315 10.6607 9.36676Z" fill="black"/>
<path fill-rule="evenodd" clip-rule="evenodd" d="M38.4026 10.721C36.43 11.045 35.0201 11.7191 33.9422 12.8535C32.9645 13.8822 32.6245 14.7655 32.6245 16.2767C32.6245 17.7249 32.9683 18.6724 33.817 19.5636C35.0387 20.8463 36.4872 21.3169 40.5446 21.7492C43.5984 22.0746 44.3076 22.2259 44.9123 22.6805C45.4678 23.0983 45.5989 23.9909 45.1972 24.6204C44.6374 25.4976 42.9574 25.9929 40.9178 25.882C39.2366 25.7906 38.302 25.4315 37.4699 24.5572C37.0983 24.1667 36.9357 23.9187 36.8505 23.6118L36.7349 23.1958H34.5439H32.3529L32.4083 23.6939C32.7017 26.3306 34.8737 28.3453 38.3054 29.1642C39.2567 29.3911 42.0811 29.488 43.2028 29.3321C45.372 29.0308 47.1184 28.2222 48.3064 26.969C49.5435 25.6641 50.0314 23.9231 49.6679 22.111C49.4202 20.8764 48.8096 20.0334 47.7393 19.4483C46.5012 18.7715 45.3928 18.5215 41.6637 18.0782C38.2396 17.6711 37.5995 17.4984 37.1522 16.8615C36.9084 16.5144 36.9084 15.6887 37.1521 15.3415C37.4759 14.8802 37.9765 14.5555 38.6909 14.3433C39.2816 14.1679 39.5729 14.1375 40.669 14.1371C41.7511 14.1366 42.057 14.1675 42.6021 14.3319C43.451 14.588 43.959 14.8671 44.3738 15.3051C44.6787 15.6271 44.781 15.81 44.9297 16.2986C44.9726 16.4394 45.1527 16.4518 47.1466 16.4518H49.3169L49.2635 15.972C48.9739 13.3692 46.4487 11.279 42.9082 10.7112C41.9149 10.5518 39.3989 10.5573 38.4026 10.721ZM59.1876 10.7554C55.3374 11.471 52.5977 14.0034 51.7205 17.6572C51.6106 18.1149 51.4719 18.6413 51.4706 20C51.4691 21.6333 51.7359 22.6111 51.7359 22.6111C52.0257 23.7066 52.3481 24.2915 52.9131 25.1884C54.3196 27.4206 56.7068 28.8933 59.6103 29.3198C60.5423 29.4567 62.8811 29.4372 63.7684 29.2852C67.4572 28.6534 70.1922 26.4097 71.2445 23.152C71.5405 22.2359 71.6861 21.1963 71.6861 19.999C71.6861 17.2428 70.9231 15.2586 69.16 13.4302C67.7302 11.9473 65.8224 11.0154 63.5261 10.6781C62.5167 10.5299 60.1766 10.5715 59.1876 10.7554ZM74.111 16.9116C74.1347 22.2876 74.1519 22.9421 74.2821 23.4147C74.9493 25.8368 76.3421 27.5644 78.4608 28.5982C79.6127 29.1602 80.4817 29.3432 82.2296 29.3919C84.0415 29.4422 84.9132 29.3214 86.1768 28.8444C88.586 27.935 90.2698 26.0479 90.9435 23.5023C91.1258 22.8138 91.1295 22.6989 91.156 16.8678L91.1829 10.9341H89.0263H86.8697L86.8442 16.5613C86.8192 22.0847 86.8154 22.1978 86.6393 22.688C86.0005 24.4659 84.9259 25.2371 82.9235 25.3545C80.6039 25.4905 79.0297 24.4201 78.5306 22.3672C78.4233 21.926 78.4037 21.0015 78.4037 16.3896V10.9341H76.2442H74.0847L74.111 16.9116ZM94.3269 19.999V29.0639H101.957H109.587V27.0494V25.035H104.113H98.6394V17.9845V10.9341H96.4831H94.3269V19.999ZM122.08 11.1749C122.015 11.3073 120.238 15.357 118.129 20.1741C116.021 24.9912 114.279 28.962 114.258 28.9982C114.238 29.0344 115.264 29.0639 116.54 29.0639H118.859L119.628 27.2239L120.397 25.3839L124.995 25.4066L129.594 25.4291L130.351 27.2446L131.108 29.06L133.414 29.0619C134.683 29.063 135.706 29.0344 135.688 28.9982C135.67 28.962 133.888 24.8829 131.728 19.9333L127.8 10.9341H124.998H122.197L122.08 11.1749ZM137.452 19.999V29.0639H139.608H141.765V19.999V10.9341H139.608H137.452V19.999ZM123.46 18.0532L121.953 21.6631L124.947 21.6861C126.593 21.6987 127.955 21.6935 127.973 21.6745C128 21.6458 125.203 14.889 125.025 14.552C124.992 14.4906 124.314 16.0088 123.46 18.0532ZM60.3689 14.7038C59.0242 14.9275 58.0341 15.4316 57.2128 16.3106C56.8927 16.6533 56.528 17.1375 56.4024 17.3868C55.6683 18.8435 55.6681 21.1531 56.4021 22.6111C56.7441 23.2904 57.7685 24.3372 58.4168 24.6698C59.4198 25.1845 60.12 25.3284 61.6097 25.3261C63.1011 25.3238 63.8145 25.1771 64.8026 24.6695C65.5275 24.2972 66.4251 23.3491 66.7822 22.5787C67.3125 21.4345 67.4761 20.1741 67.2589 18.9066C66.9072 16.8543 65.5872 15.4307 63.5172 14.8709C62.7499 14.6635 61.1287 14.5774 60.3689 14.7038Z" fill="black"/>
</svg>
